<?xml version="1.0" encoding="UTF-8" standalone="no"?>
<!-- Created with Inkscape (http://www.inkscape.org/) -->

<svg
   width="150"
   height="150"
   viewBox="0 0 39.687499 39.6875"
   version="1.1"
   id="svg1"
   sodipodi:docname="scale_button.svg"
   inkscape:version="1.4.2 (f4327f4, 2025-05-13)"
   xml:space="preserve"
   xmlns:inkscape="http://www.inkscape.org/namespaces/inkscape"
   xmlns:sodipodi="http://sodipodi.sourceforge.net/DTD/sodipodi-0.dtd"
   xmlns="http://www.w3.org/2000/svg"
   xmlns:svg="http://www.w3.org/2000/svg"><sodipodi:namedview
     id="namedview1"
     pagecolor="#505050"
     bordercolor="#eeeeee"
     borderopacity="1"
     inkscape:showpageshadow="0"
     inkscape:pageopacity="0"
     inkscape:pagecheckerboard="0"
     inkscape:deskcolor="#505050"
     inkscape:document-units="px"
     showgrid="true"
     inkscape:zoom="2.8733334"
     inkscape:cx="81.438515"
     inkscape:cy="56.728538"
     inkscape:window-width="1920"
     inkscape:window-height="1057"
     inkscape:window-x="-8"
     inkscape:window-y="-8"
     inkscape:window-maximized="1"
     inkscape:current-layer="layer1"><inkscape:grid
       id="grid1"
       units="px"
       originx="0"
       originy="0"
       spacingx="6.6145832"
       spacingy="6.6145832"
       empcolor="#0099e5"
       empopacity="0.30196078"
       color="#0099e5"
       opacity="0.14901961"
       empspacing="5"
       enabled="true"
       visible="true" /></sodipodi:namedview><defs
     id="defs1" /><g
     inkscape:label="Layer 1"
     inkscape:groupmode="layer"
     id="layer1"><g
       id="g8"
       transform="matrix(3.6324914,0,0,3.6324914,-27.85965,-59.537778)"><path
         style="fill:#ffffff;fill-opacity:1;stroke:none;stroke-width:1.45925;stroke-linecap:round;stroke-linejoin:round;stroke-opacity:1"
         id="path7"
         d="m 10.640789,19.343646 c -0.550094,0.354873 -1.1219913,0.759143 -1.5171755,1.361945 -0.141541,0.21589 -0.2855337,0.440232 -0.3663856,0.698145 -0.1030663,0.328851 -0.1175756,0.689171 -0.1763134,1.033756 0.116575,0.40886 0.1436424,0.873714 0.3497249,1.226611 0.2008292,0.343929 0.5074163,0.597148 0.8208679,0.778056 0.8421817,0.486133 1.9249577,0.22732 2.7576287,-0.125242 0.25036,-0.10603 0.487213,-0.254192 0.73082,-0.381258 0.63946,-0.444791 1.402422,-0.921671 1.629242,-1.873516 0.09811,-0.411717 0.12403,-0.869592 0.03752,-1.285115 -0.214487,-1.0293 -0.667429,-1.154767 -1.320894,-1.631179 -0.281581,-0.06517 -0.558579,-0.174487 -0.844678,-0.195584 -0.966532,-0.07131 -2.151183,0.444305 -2.8542908,1.258468 -0.181967,0.210723 -0.3219071,0.469171 -0.4828104,0.703751 -0.095061,0.356453 -0.2929384,0.694739 -0.2850834,1.069286 0.024516,1.163144 0.4081124,1.745422 1.2436496,2.215444 0.467851,0.26319 1.218014,0.244222 1.718351,0.154181 0.242956,-0.04377 0.477056,-0.142387 0.71561,-0.21358 0.197076,-0.0991 0.402458,-0.176615 0.591219,-0.297297 0.579279,-0.370315 1.116479,-0.964065 1.301658,-1.756992 0.06689,-0.286415 0.116024,-0.593136 0.08065,-0.887734 -0.04303,-0.358581 -0.206432,-0.679936 -0.309649,-1.019907 -0.205231,-0.225557 -0.377842,-0.50492 -0.615731,-0.676702 -0.876268,-0.63269 -2.194956,-0.410258 -3.101669,-0.01033 -0.257866,0.113751 -0.499621,0.275654 -0.7494019,0.413481 -0.2116862,0.169198 -0.4348296,0.318758 -0.6349934,0.507533 -0.636189,0.599945 -1.2280896,1.518236 -1.0353457,2.59348 0.203831,1.137239 0.6283841,1.237974 1.3150056,1.726594 0.2047816,0.07059 0.4065614,0.155579 0.6143454,0.211756 0.569797,0.153999 1.217527,0.19984 1.790301,0.03526 0.12458,-0.03587 0.244157,-0.09369 0.366285,-0.140502 1.755859,-0.789079 0.83752,-3.806515 -0.91834,-3.017436 v 0 c 0.02052,-0.0011 0.04653,-0.02067 0.06119,-0.0034 0.01151,0.01337 -0.02802,0.01945 -0.04403,0.0231 -0.04653,0.01034 -0.09436,0.01702 -0.141892,0.01885 -0.179615,0.0073 -0.288885,-0.01034 -0.470102,-0.03648 -0.06094,-0.0091 -0.121578,-0.02067 -0.182367,-0.03101 0.12583,0.269513 0.246959,0.497563 0.240554,0.854752 -0.004,0.223064 -0.104517,0.429774 -0.184018,0.630885 -0.0095,0.02432 -0.07635,0.02675 -0.06644,0.0024 0.07459,-0.180993 0.326911,-0.375361 0.436831,-0.476284 0.37184,-0.243674 0.32641,-0.246471 0.754095,-0.385028 0.115375,-0.03709 0.2334,-0.06171 0.351076,-0.08615 0.0689,-0.01459 0.158802,0.02979 0.208233,-0.0304 0.103818,-0.126093 -0.640401,-0.316935 -0.249659,-0.440779 -0.02702,-0.189018 -0.0834,-0.3753 -0.08076,-0.567115 0.0017,-0.126214 0.04753,-0.248173 0.09371,-0.361134 0.03202,-0.07837 0.18532,-0.230117 0.181466,-0.142691 -0.0065,0.147737 -0.316853,0.164699 -0.303694,0.246775 -0.0873,0.03769 -0.172611,0.08305 -0.262019,0.112779 -0.08736,0.02918 -0.181816,0.02432 -0.266671,0.06286 -0.02852,0.01277 -0.0703,0.04985 -0.05974,0.08481 0.04553,0.150594 0.178214,0.252916 0.208484,0.408982 0.137088,0.706984 0.0812,0.66301 -0.17111,1.101453 -0.04103,-0.157342 -0.04103,-0.08287 0.159002,-0.27237 0.190172,-0.180081 0.276978,-0.218748 0.507871,-0.31578 0.06984,-0.02918 0.143843,-0.04317 0.213188,-0.07399 0.03052,-0.01337 0.05649,-0.03952 0.0847,-0.05958 -0.211136,-0.4744 -0.290137,-0.800399 -0.05999,-1.326671 0.04703,-0.107063 0.138539,-0.189322 0.233049,-0.228049 0.203331,-0.08329 -0.890123,0.806977 -0.517292,0.465644 -0.400958,0.229266 -0.419571,0.26088 -0.833402,0.418405 -0.09546,0.03648 -0.20203,0.03405 -0.290687,0.09059 -0.02802,0.01763 -0.03602,0.07429 -0.02551,0.110225 0.279629,0.943175 0.09596,-0.471724 0.209934,0.987478 -0.04904,0.116912 -0.08565,0.243005 -0.147445,0.350677 -0.0085,0.01459 -0.04453,-0.0097 -0.03903,-0.02614 0.09521,-0.272431 0.494869,-0.498718 0.697658,-0.654559 1.704286,-0.941351 0.608732,-3.870163 -1.095559,-2.928806 z" /><path
         style="fill:#1c1c1c;fill-opacity:1;stroke-width:0.264583;stroke-linecap:round;stroke-linejoin:round"
         id="path1"
         d="m 10.205089,19.078788 c -0.06587,0.02487 -0.08823,0.03236 -0.158361,0.06409 -0.04164,0.01884 -0.083953,0.03654 -0.1238795,0.05879 -0.1473342,0.0821 -0.2780942,0.171383 -0.4086545,0.279428 -0.08254,0.06831 -0.1592244,0.143395 -0.2388364,0.215092 -0.083493,0.08858 -0.1707727,0.173732 -0.2504776,0.265733 -0.1720165,0.198553 -0.3489809,0.436397 -0.4882902,0.658589 -0.149072,0.237763 -0.2876415,0.503477 -0.4008225,0.76041 -0.052836,0.119943 -0.096843,0.243585 -0.1452647,0.365378 -0.084306,0.267928 -0.1347074,0.390548 -0.1766671,0.665668 -0.030099,0.197354 -0.037644,0.406588 -0.019182,0.605654 0.022323,0.240694 0.05011,0.294243 0.1177229,0.521719 0.090055,0.196558 0.114055,0.281868 0.2534505,0.452015 0.1415031,0.17272 0.2837278,0.285497 0.4801576,0.395657 0.2387058,0.133869 0.430204,0.189319 0.6862802,0.279869 0.1240671,0.03226 0.2469057,0.06968 0.3722013,0.09678 0.2646175,0.05723 0.593222,0.102329 0.861483,0.126511 0.299055,0.02696 0.619676,0.03967 0.919903,0.03005 0.152036,-0.0049 0.30354,-0.02046 0.45531,-0.03069 0.146085,-0.0212 0.293148,-0.03648 0.438253,-0.06358 0.416188,-0.07773 0.822901,-0.206497 1.199601,-0.401519 0.322644,-0.167037 0.389154,-0.234618 0.677104,-0.449305 0.197882,-0.186372 0.370462,-0.327488 0.523582,-0.555176 0.160321,-0.238398 0.272948,-0.507064 0.356923,-0.780381 0.104716,-0.340828 0.107122,-0.461056 0.154503,-0.808545 0.0023,-0.1287 0.01129,-0.257454 0.0069,-0.3861 -0.01093,-0.321267 -0.06776,-0.64943 -0.191242,-0.947512 -0.09389,-0.226647 -0.137499,-0.267846 -0.274246,-0.465634 -0.05703,-0.06201 -0.109843,-0.128199 -0.171102,-0.186043 -0.182511,-0.172336 -0.395684,-0.296437 -0.626597,-0.39171 -0.171314,-0.07068 -0.272569,-0.09493 -0.449174,-0.146131 -0.393217,-0.100512 -0.796223,-0.153428 -1.197627,-0.20892 -0.278305,-0.03703 -0.55763,-0.0688 -0.837898,-0.08665 -0.04869,-0.0031 -0.09744,-0.0053 -0.146162,-0.0079 -0.315576,-0.01352 -0.631457,0.0083 -0.945786,0.03504 -0.115619,0.0086 -0.230581,0.02387 -0.344974,0.0424 -0.3692796,0.06034 -0.2839454,0.582581 0.08533,0.522241 v 0 c 0.100975,-0.01668 0.202569,-0.02982 0.304666,-0.0374 0.289917,-0.02483 0.581288,-0.04557 0.872382,-0.03388 0.04535,0.0024 0.09072,0.0044 0.136039,0.0073 0.268916,0.01699 0.536916,0.04759 0.803942,0.08307 0.376496,0.05204 0.754537,0.101122 1.123828,0.193291 0.148463,0.04229 0.232021,0.06204 0.375286,0.118778 0.1669,0.0661 0.326592,0.151898 0.460859,0.272603 0.04455,0.04005 0.08321,0.08621 0.124815,0.129314 0.101731,0.139695 0.135635,0.170809 0.206526,0.333842 0.104701,0.240791 0.150468,0.505998 0.16201,0.767032 0.0048,0.107683 -0.0016,0.21557 -0.0024,0.323355 -0.01474,0.11461 -0.0235,0.230149 -0.04423,0.343828 -0.04287,0.235116 -0.108268,0.46901 -0.202608,0.688995 -0.04268,0.09953 -0.08925,0.198288 -0.148278,0.289086 -0.123056,0.189292 -0.272057,0.31397 -0.433255,0.468832 -0.244466,0.185459 -0.303542,0.245809 -0.578286,0.390645 -0.331439,0.174724 -0.690115,0.289575 -1.057399,0.359644 -0.131654,0.02512 -0.265135,0.03948 -0.397702,0.05922 -0.13932,0.0098 -0.278377,0.02465 -0.41796,0.02944 -0.280824,0.0096 -0.579351,-0.0017 -0.859112,-0.02643 C 10.38516,24.343281 10.076678,24.301951 9.8362925,24.25124 9.7255506,24.22787 9.616914,24.19544 9.5072228,24.16754 9.2432504,24.07598 8.9667335,23.993952 8.7403417,23.822421 8.6433967,23.748971 8.5602356,23.65162 8.498049,23.54746 8.466994,23.49544 8.444827,23.438611 8.418216,23.384187 8.364993,23.217792 8.342681,23.175909 8.323394,22.997897 8.306762,22.844395 8.309871,22.672931 8.331694,22.520559 8.365838,22.282129 8.409904,22.175241 8.4825044,21.941016 8.5259344,21.830644 8.5653324,21.7186 8.6127932,21.6099 8.7134171,21.379439 8.8404877,21.132921 8.9732038,20.919449 9.097422,20.719646 9.2571954,20.503058 9.410749,20.324017 c 0.069977,-0.08159 0.1466667,-0.15718 0.2200002,-0.235769 0.067296,-0.06151 0.1321573,-0.125789 0.2018874,-0.184522 0.089948,-0.07576 0.2127364,-0.164574 0.3178734,-0.224349 0.07024,-0.03994 0.147276,-0.06806 0.221861,-0.09853 0.354976,-0.118325 0.187639,-0.620336 -0.167337,-0.502011 z" /><path
         style="fill:#1c1c1c;fill-opacity:1;stroke-width:0.264583;stroke-linecap:round;stroke-linejoin:round"
         id="path2"
         d="m 10.153567,22.059613 c 0.0245,0.07332 0.05121,0.145888 0.0781,0.21836 0.01651,0.04518 0.0079,0.02247 0.02585,0.06814 0.137797,0.34788 0.629774,0.153006 0.491977,-0.194874 v 0 c -0.01331,-0.03321 -0.0059,-0.01414 -0.02173,-0.05739 -0.02484,-0.0669 -0.04953,-0.133891 -0.07219,-0.201572 -0.118326,-0.354975 -0.620337,-0.187638 -0.502012,0.167337 z" /><path
         style="fill:#1c1c1c;fill-opacity:1;stroke-width:0.264583;stroke-linecap:round;stroke-linejoin:round"
         id="path3"
         d="m 11.946091,21.648258 c 0.04802,0.09243 0.09381,0.18592 0.137547,0.280459 0.0079,0.01683 0.01586,0.03367 0.02379,0.0505 0.159493,0.338483 0.63818,0.112926 0.478687,-0.225557 v 0 c -0.0074,-0.01579 -0.01488,-0.03158 -0.02232,-0.04736 -0.05081,-0.109564 -0.103701,-0.218128 -0.160616,-0.324669 -0.188537,-0.323206 -0.64562,-0.05657 -0.457083,0.266632 z" /><path
         style="fill:#1c1c1c;fill-opacity:1;stroke-width:0.264583;stroke-linecap:round;stroke-linejoin:round"
         id="path4"
         d="m 9.697459,23.111876 c 0.020145,0.02959 0.037132,0.06161 0.06044,0.08878 0.04453,0.05192 0.1309859,0.105919 0.1854647,0.136301 0.059786,0.03334 0.1205453,0.06527 0.1833403,0.09252 0.252995,0.109804 0.355814,0.132937 0.626686,0.216874 0.36173,0.0756 0.43997,0.106999 0.816793,0.122697 0.143164,0.006 0.286762,0.0027 0.429836,-0.0051 0.251766,-0.0138 0.523973,-0.05224 0.770807,-0.106565 0.107295,-0.02361 0.21237,-0.05638 0.318554,-0.08457 0.216398,-0.07924 0.308106,-0.101447 0.504099,-0.214975 0.0676,-0.03916 0.135016,-0.08026 0.194103,-0.131368 0.160618,-0.13894 0.184226,-0.203851 0.291255,-0.37597 0.191453,-0.321487 -0.263199,-0.592243 -0.454652,-0.270755 v 0 c -0.03749,0.06802 -0.07938,0.157154 -0.137848,0.211675 -0.03946,0.0368 -0.0854,0.06638 -0.131639,0.09419 -0.154492,0.09292 -0.228187,0.110591 -0.402457,0.176117 -0.09218,0.02504 -0.183345,0.05414 -0.276531,0.07511 -0.220111,0.04953 -0.459073,0.08413 -0.683829,0.09801 -0.258347,0.01595 -0.482962,0.01189 -0.739353,-0.02478 -0.115601,-0.01653 -0.228922,-0.04629 -0.343382,-0.06944 -0.234602,-0.07176 -0.329302,-0.09344 -0.546355,-0.184732 -0.04892,-0.02057 -0.09562,-0.04609 -0.142931,-0.07013 -0.01868,-0.0095 -0.03641,-0.02077 -0.05499,-0.03044 -0.0025,-0.0013 -0.0091,-0.005 -0.0081,-0.0024 0.007,0.01776 0.01804,0.03366 0.02706,0.0505 -0.147395,-0.343923 -0.6337759,-0.135475 -0.4863803,0.208449 z" /><g
         id="g7"
         transform="translate(-1.5952456,1.2696853)"><path
           id="path6"
           style="fill:#f7ff00;fill-opacity:1;stroke:none;stroke-width:0.83454;stroke-linecap:round;stroke-linejoin:round;stroke-opacity:1"
           d="m 16.284243,18.794675 c -0.532428,0.0046 -1.038567,0.58284 -0.703413,1.298774 0.16362,0.318238 0.327591,0.635687 0.492075,0.953447 -0.275112,0.09897 -0.549132,0.199674 -0.826433,0.291423 -1.098044,0.335085 -0.654865,1.994351 0.443183,1.659266 0.339637,-0.111093 0.675652,-0.235277 1.012537,-0.355435 0.0583,-0.02083 0.116922,-0.04275 0.175065,-0.06401 0.08803,0.163125 0.174821,0.32645 0.261809,0.490198 0.04526,0.08557 0.08886,0.17283 0.129325,0.261104 0.508065,1.092372 1.955895,0.324214 1.447833,-0.768148 -0.05457,-0.116341 -0.111297,-0.232399 -0.171909,-0.345331 -0.04683,-0.088 -0.09473,-0.175014 -0.141945,-0.262786 0.09148,-0.03949 0.183067,-0.07979 0.274425,-0.119601 0.157025,-0.06904 0.310513,-0.147811 0.46053,-0.232468 0.07627,-0.04238 0.151339,-0.08841 0.225533,-0.134761 0.977577,-0.630509 0.141686,-2.106158 -0.835894,-1.47565 -0.0325,0.03902 -0.127655,0.06272 -0.167179,0.0977 -0.09125,0.049 -0.193093,0.105959 -0.293351,0.148238 -0.154327,0.06733 -0.309343,0.133204 -0.463685,0.200459 -0.192187,-0.372165 -0.384026,-0.743632 -0.577238,-1.11516 -0.17556,-0.375017 -0.462377,-0.529707 -0.741268,-0.527259 z" /><path
           style="fill:#1c1c1c;fill-opacity:1;stroke:none;stroke-width:0.264583;stroke-linecap:round;stroke-linejoin:round;stroke-opacity:1"
           id="path5"
           d="m 15.656636,19.563775 c -0.134485,0.279907 -0.223904,0.577108 -0.300388,0.877126 -0.01084,0.04939 -0.04853,0.214771 -0.05634,0.272093 -0.0056,0.04121 -0.0154,0.08313 -0.01007,0.124379 0.02157,0.167139 0.06034,0.255672 0.218055,0.345013 0.05715,0.03238 0.12765,0.03104 0.191474,0.04656 0.164733,0.01261 0.320072,-0.0408 0.478808,-0.07211 0.04894,-0.0096 0.05377,-0.01707 0.04019,-0.0018 -0.0565,-0.0045 -0.04555,0.002 -0.09626,-0.02438 -0.0065,-0.0034 -0.01185,-0.0085 -0.01778,-0.01275 -0.0023,-0.0017 -0.0072,-0.0078 -0.0069,-0.005 5.56e-4,0.0064 0.0053,0.01172 0.008,0.01755 0.0048,0.01048 0.0097,0.02094 0.0146,0.0314 0.01973,0.04176 0.04055,0.08302 0.06161,0.124129 0.01172,0.02288 0.02623,0.04589 0.0346,0.07039 0.01003,0.04355 -0.01461,-0.0627 -0.01328,-0.08901 0.0015,-0.02915 0.01773,-0.05571 0.02394,-0.08422 0.0028,-0.01293 -0.02466,0.01 -0.03585,0.01704 -0.01887,0.01188 -0.03774,0.02375 -0.05661,0.03563 -0.100613,0.06486 -0.204936,0.124071 -0.313295,0.174983 -0.03626,0.01707 -0.07114,0.03668 -0.10595,0.05645 -0.0064,0.0036 -0.01268,0.0073 -0.01916,0.01073 -0.0026,0.0014 -0.01084,0.0049 -0.0081,0.0036 0.01217,-0.0054 0.02434,-0.01085 0.03651,-0.01627 0.0049,-0.0016 0.01023,-0.0023 0.0147,-0.0049 0.0043,-0.0025 -0.0065,-0.0076 -0.01075,-0.0101 -0.0097,-0.0056 -0.01978,-0.01075 -0.0296,-0.01625 -0.06443,-0.03613 -0.0413,-0.02271 -0.106692,-0.06466 -0.104545,-0.07096 -0.188963,-0.16565 -0.286383,-0.245019 -0.07478,-0.01669 -0.149447,-0.06621 -0.224348,-0.05006 -0.200955,0.04332 -0.242105,0.209885 -0.287457,0.368805 -0.08231,0.288428 0.02338,-0.07458 -0.07242,0.252559 -0.08848,0.296542 -0.202699,0.584189 -0.325653,0.867854 -0.0439,0.103253 -0.09068,0.205255 -0.13301,0.309176 -0.0099,0.02431 -0.0218,0.04799 -0.02885,0.07328 -0.01037,0.03723 -0.03283,0.07617 -0.02321,0.113609 0.02456,0.09559 0.08116,0.179926 0.121736,0.269888 0.06378,0.03315 0.124524,0.07296 0.191348,0.09945 0.07492,0.0297 0.325685,0.08196 0.398999,0.09766 0.19923,0.04268 0.398443,0.08507 0.597409,0.128988 0.115284,0.02514 0.230445,0.05095 0.3462,0.07388 0.03266,0.0065 0.09558,0.01915 0.129711,0.02117 0.027,0.0016 0.05409,3.1e-5 0.08114,4.7e-5 0.03342,-0.0078 0.06863,-0.01021 0.100262,-0.02354 0.09896,-0.04169 0.17238,-0.121422 0.206149,-0.222972 0.02698,-0.08113 0.02134,-0.109937 0.02302,-0.193549 -0.0068,-0.132464 -0.04361,-0.260319 -0.06701,-0.390232 -0.01077,-0.06459 0.0024,-0.04661 -0.0081,0.02874 -0.0049,0.03514 -0.02522,0.04485 0.02288,0.01518 0.108967,-0.06021 0.227642,-0.09982 0.344799,-0.14056 0.133122,-0.0463 0.07813,-0.03156 0.19011,-0.05487 0.0061,0.0038 0.01554,0.0047 0.01834,0.01127 0.0021,0.0048 -0.0089,0.0086 -0.0077,0.01373 0.002,0.009 0.01,0.01567 0.01584,0.02282 0.01236,0.01502 0.02635,0.02865 0.03881,0.04359 0.02473,0.02962 0.05596,0.07216 0.07903,0.102957 0.01888,0.02826 0.04003,0.05599 0.05291,0.08777 0.001,0.0025 0.0035,0.0102 0.0021,0.0079 -0.01153,-0.01991 -0.01075,-0.03988 -0.01448,-0.06332 9.26e-4,-0.01256 0.0029,-0.0251 0.0028,-0.0377 -2.9e-5,-0.003 -0.0021,0.0056 -0.0031,0.0085 -0.0055,0.01678 -0.02302,0.06653 -0.01517,0.05072 0.05086,-0.102438 -0.04633,0.03771 0.06564,-0.107312 -0.0024,-7.41e-4 -0.0048,-0.0029 -0.0073,-0.0022 -0.04542,0.0123 -0.08883,0.03111 -0.133385,0.04625 -0.07075,0.02405 -0.140734,0.04793 -0.210114,0.07575 -0.152247,0.07029 -0.264397,0.159406 -0.241673,0.362551 0.01424,0.127292 0.09867,0.168612 0.183167,0.229135 0.122445,0.06336 0.242486,0.131299 0.365033,0.194435 0.154734,0.07686 0.319967,0.128389 0.483317,0.183123 0.138879,0.04609 0.276756,0.09371 0.41892,0.128802 0.105319,0.02572 0.213088,0.03648 0.321125,0.04122 0.107745,0.0043 0.182299,0.0048 0.283568,-0.06549 0.03559,-0.0247 0.05703,-0.06523 0.08555,-0.09785 0.117352,-0.213251 0.211205,-0.438852 0.30377,-0.663719 0.102175,-0.24878 0.185156,-0.504751 0.2628,-0.762041 0.03307,-0.111143 0.06747,-0.208207 0.0037,-0.329143 -0.03291,-0.06242 -0.09272,-0.109975 -0.153561,-0.145734 -0.07368,-0.04331 -0.180312,-0.03843 -0.263026,-0.04031 -0.128826,0.007 -0.257886,0.02153 -0.383436,0.05177 -0.04159,0.01013 -0.08184,0.0244 -0.122314,0.03812 -0.02984,0.01012 -0.05904,0.01158 0.06739,-0.01 0.03663,0.01012 0.0747,0.01598 0.109882,0.03034 0.01622,0.0066 0.02749,0.02178 0.04197,0.03163 0.0022,0.0015 0.0078,0.0046 0.0076,0.002 -0.0012,-0.01227 -0.0072,-0.02359 -0.01085,-0.03537 -0.02408,-0.07798 -0.01101,-0.03334 -0.03369,-0.114525 -0.01624,-0.05779 -0.03166,-0.115769 -0.04844,-0.173406 -0.01482,-0.05089 -0.01311,-0.06502 -0.006,0.0018 -0.012,0.03744 -0.01872,0.077 -0.036,0.112317 -0.0093,0.01902 -0.0284,0.03143 -0.0422,0.04749 -8.73e-4,10e-4 -0.003,0.0039 -0.0017,0.0036 0.02699,-0.0067 0.0534,-0.02253 0.07923,-0.03297 0.06022,-0.02205 0.11742,-0.05113 0.176317,-0.07622 0.04593,-0.02046 0.08846,-0.04754 0.13372,-0.0693 0.0059,-0.0028 0.0238,-0.01092 0.01796,-0.008 -0.0082,0.0042 -0.01671,0.0077 -0.02506,0.01156 -0.185456,0.02435 0.03411,0.001 -0.102837,0.0022 -0.0024,2.1e-5 0.0019,0.0044 0.0034,0.0061 0.0056,0.006 0.01192,0.01123 0.01788,0.01686 0.03867,0.0366 0.02164,0.02017 0.0612,0.05941 0.04903,0.05166 0.09197,0.108741 0.132303,0.167334 0.06261,0.07479 0.08648,0.116312 0.218083,0.138254 0.118267,0.01972 0.220213,-0.03648 0.308875,-0.101458 0.08657,-0.06344 0.124084,-0.116422 0.194323,-0.197526 0.15211,-0.197146 0.253286,-0.425172 0.337141,-0.657887 0.06221,-0.184493 0.109831,-0.373462 0.147127,-0.56444 0.0066,-0.06276 0.03085,-0.122424 0.04068,-0.184474 0.0037,-0.02362 0.0128,-0.04771 0.0085,-0.07124 -0.01153,-0.06377 -0.03675,-0.124298 -0.05512,-0.186447 -0.04377,-0.03958 -0.08253,-0.08555 -0.131319,-0.118749 -0.05,-0.03402 -0.251621,-0.113501 -0.304223,-0.134822 -0.16328,-0.06618 -0.326224,-0.132535 -0.488333,-0.201557 -0.221859,-0.09425 -0.438419,-0.200174 -0.656472,-0.302712 -0.07949,-0.03439 -0.160798,-0.07303 -0.248064,-0.08283 -0.02066,-0.0023 -0.04149,-0.0025 -0.06224,-0.0038 -0.118812,0.0058 -0.220073,0.05657 -0.288451,0.156848 -0.03667,0.05378 -0.04724,0.100117 -0.06603,0.159669 -0.03919,0.149554 -0.04622,0.303402 -0.03776,0.45697 0.0088,0.09294 0.02645,0.187785 0.06868,0.272045 0.0086,0.01719 0.01892,0.03349 0.02838,0.05023 0.01717,0.02432 0.02903,0.05423 0.04674,0.0919 -0.04614,-0.107045 -0.03062,-0.05435 0.06179,-0.28769 0.0062,-0.01576 0.04153,-0.01378 0.04054,-0.0307 -8.2e-4,-0.01413 -0.02795,0.0045 -0.04195,0.0066 -0.166344,0.02504 0.04314,-0.0074 -0.136612,0.02065 -0.13748,0.02101 -0.270991,0.05778 -0.401909,0.103981 -0.06814,0.02197 -0.131307,0.05692 -0.197648,0.08307 -0.0087,0.0034 0.01533,-0.01227 0.0246,-0.01341 0.09911,-0.01217 0.08503,-0.0069 0.165042,0.02917 8.2e-4,-0.0032 0.0036,-0.0064 0.0025,-0.0095 -0.0064,-0.01781 -0.01654,-0.03403 -0.02419,-0.05132 -0.0092,-0.02068 -0.01767,-0.04163 -0.0262,-0.06257 -0.02602,-0.06381 -0.05105,-0.128015 -0.07715,-0.191795 -0.0044,-0.01243 -0.01379,-0.05045 -0.01308,-0.03729 0.0022,0.04067 0.01891,0.0802 0.01757,0.120906 -8.47e-4,0.02544 -0.03224,0.04844 -0.02395,0.0725 0.0051,0.01478 0.02751,-0.01487 0.04121,-0.02239 0.114475,-0.06279 0.0326,-0.01894 0.156446,-0.08428 0.119382,-0.06112 0.23821,-0.123476 0.348504,-0.200045 0.138973,-0.09368 0.187842,-0.128455 0.167266,-0.369903 -0.0044,-0.0514 -0.05899,-0.08465 -0.08848,-0.126971 -0.02411,-0.01835 -0.04774,-0.03736 -0.07234,-0.05504 -0.03998,-0.02872 -0.08617,-0.05564 -0.12684,-0.08301 -0.08257,-0.05558 -0.160888,-0.116961 -0.239617,-0.177745 -0.157209,-0.122451 -0.318959,-0.238903 -0.483879,-0.350704 -0.112853,-0.07852 -0.240507,-0.129389 -0.370819,-0.170527 -0.08236,-0.02347 -0.169399,-0.04031 -0.255098,-0.0249 -0.02547,0.0046 -0.05012,0.0129 -0.07518,0.01936 -0.122372,0.04627 -0.217676,0.13416 -0.306904,0.22668 -0.05367,0.05509 -0.09802,0.118342 -0.150998,0.17402 -0.04384,0.0408 -0.08229,0.08632 -0.118283,0.134018 -0.04516,0.06151 -0.06582,0.134443 -0.089,0.205787 -0.02312,0.07922 -0.0044,0.01593 -0.005,0.01601 -0.0038,5.03e-4 -0.003,0.0069 -0.0043,0.01052 -0.0043,0.01228 -0.0088,0.02452 -0.01248,0.03701 -0.01539,0.05215 -0.0037,0.02203 -0.01001,0.03809 -0.0074,0.02677 -0.0036,0.01221 -0.01139,0.04372 -0.08807,0.363666 0.426232,0.488214 0.514301,0.124548 v 0 c 0.003,-0.01351 0.0011,-0.0056 0.0061,-0.02358 0.0027,-0.0099 0.0056,-0.0198 0.0081,-0.02979 7.94e-4,-0.0032 -0.0093,0.02276 -0.0046,0.0098 0.0076,-0.02089 0.0179,-0.04098 0.02258,-0.06284 0.0044,-0.01345 0.02157,-0.04792 0.01717,-0.05866 -2.65e-4,-6.61e-4 -0.0021,0.0015 -0.002,7.41e-4 7.7e-5,-0.0019 0.0015,-0.0035 0.0022,-0.0052 -0.01017,0.0073 -0.005,0.0041 0.01141,-0.01445 0.01323,-0.0149 0.02602,-0.02813 0.04019,-0.04232 0.0079,-0.0079 0.01567,-0.01601 0.0235,-0.02402 0.04999,-0.0547 0.09597,-0.112754 0.145325,-0.167983 0.02217,-0.02364 0.04491,-0.04602 0.06898,-0.06772 0.0043,-0.0039 0.0084,-0.0079 0.01283,-0.01155 0.0037,-0.0031 0.0095,-0.0045 0.01159,-0.0089 10e-4,-0.0022 -0.005,-1.5e-5 -0.0075,-2.3e-5 -0.01243,0.0011 -0.01851,0.0034 -0.02926,5.03e-4 -0.0015,-3.97e-4 -0.0057,-0.0015 -0.0043,-0.0021 0.01305,-0.0048 0.0323,0.0095 0.04467,0.0085 0.08136,0.02474 0.161139,0.05418 0.231279,0.103345 0.155975,0.105645 0.308859,0.215824 0.457491,0.331612 0.110045,0.08484 0.220685,0.166868 0.337132,0.242711 0.01604,0.01045 0.03143,0.02195 0.04789,0.03173 0.0022,0.0013 0.0051,8.21e-4 0.0076,0.0012 -0.01456,-0.02776 -0.0456,-0.052 -0.04368,-0.08329 0.0053,-0.08611 0.03586,-0.169251 0.06417,-0.250752 0.0044,-0.01262 0.02109,-0.01639 0.03152,-0.02473 0.0022,-0.0018 -0.0046,0.0035 -0.007,0.0051 -0.05848,0.03808 -0.007,0.003 -0.05827,0.03846 -0.09117,0.06523 -0.193527,0.112452 -0.291917,0.165425 -0.05277,0.02795 -0.148697,0.07759 -0.197922,0.108681 -0.03814,0.02409 -0.07986,0.04463 -0.111319,0.07696 -0.04802,0.04934 -0.101152,0.100161 -0.124209,0.165036 -0.046,0.129413 -0.02143,0.173678 0.01286,0.268172 0.06756,0.164983 0.123478,0.337597 0.232919,0.480997 0.04527,0.03377 0.08358,0.07983 0.135811,0.101326 0.163151,0.06715 0.2887,-0.01021 0.431987,-0.0681 0.09935,-0.03604 0.20108,-0.06317 0.305647,-0.07951 0.05156,-0.0081 0.103386,-0.01452 0.154742,-0.0238 0.03176,-0.0057 0.06429,-0.0091 0.09481,-0.01963 0.04531,-0.01556 0.103841,-0.01894 0.131449,-0.05808 0.15359,-0.217784 0.139474,-0.212565 0.09177,-0.35683 -0.02324,-0.04879 -0.04502,-0.0988 -0.07504,-0.143878 0.0015,0.0039 0.0037,0.0075 0.0045,0.01161 3.71e-4,0.002 -0.0024,-0.0032 -0.0032,-0.0051 -0.0023,-0.0052 -0.004,-0.01074 -0.0061,-0.01604 -0.0084,-0.02081 -0.01183,-0.04264 -0.01386,-0.06504 -0.0059,-0.09266 -0.0036,-0.185128 0.01697,-0.276189 0.0016,-0.007 0.01147,-0.01846 0.0048,-0.02104 -0.007,-0.0027 -0.009,0.01209 -0.01441,0.01733 -0.04172,0.0406 -0.08956,0.07018 -0.149449,0.06639 -0.0062,-0.0011 -0.01246,-0.0019 -0.01858,-0.0033 -0.004,-9.52e-4 0.0082,-1.43e-4 0.01216,8.73e-4 0.034,0.0089 0.06552,0.0256 0.09779,0.0389 0.223997,0.105171 0.446338,0.214091 0.674274,0.31068 0.164487,0.06999 0.329712,0.137582 0.495454,0.204528 0.04691,0.01895 0.09362,0.03837 0.140563,0.05724 0.02269,0.0091 0.04683,0.03838 0.06832,0.02671 0.01643,-0.0089 -0.01833,-0.03258 -0.0275,-0.04887 -0.0061,-0.04159 -0.01379,-0.08297 -0.01827,-0.124757 -3.71e-4,-0.0034 0.0044,-0.01292 0.0039,-0.0095 -0.01145,0.06861 -0.0366,0.134895 -0.04491,0.204218 -0.03179,0.164894 -0.07316,0.327904 -0.126016,0.48737 -0.06136,0.173964 -0.135172,0.345181 -0.2439,0.495376 -0.01596,0.02009 -0.03095,0.04098 -0.04786,0.06028 -0.01304,0.01489 -0.0293,0.02681 -0.04185,0.04212 -0.04775,0.05827 0.300674,-0.04714 0.208419,0.09728 -0.0594,-0.08528 -0.122531,-0.168293 -0.195534,-0.242533 -0.09727,-0.0956 -0.204356,-0.202048 -0.345804,-0.224858 -0.03978,-0.0064 -0.08058,3.18e-4 -0.120877,4.5e-4 -0.02672,0.008 -0.05385,0.01461 -0.08015,0.02387 -0.0501,0.01763 -0.09422,0.05013 -0.141898,0.0729 -0.05484,0.02406 -0.108572,0.05049 -0.164795,0.07137 -0.08876,0.03624 -0.208758,0.07805 -0.263504,0.160178 -0.03006,0.04511 -0.04222,0.09986 -0.06334,0.149783 1.46e-4,0.03124 -0.0021,0.06259 4.5e-4,0.09372 0.0027,0.03287 0.01488,0.07008 0.02426,0.102115 0.02329,0.07961 0.0026,0.0079 0.02902,0.104024 0.0059,0.02162 0.01207,0.04319 0.0181,0.06478 0.03725,0.131755 0.08572,0.334896 0.208397,0.411576 0.04624,0.0289 0.101695,0.03942 0.152542,0.05913 0.03899,-0.0036 0.07816,-0.0056 0.116956,-0.01089 0.02982,-0.004 0.06966,-0.02955 0.101124,-0.0323 0.08106,-0.02325 0.167462,-0.025 0.250639,-0.03567 0.01458,-4.76e-4 0.03643,0.01117 0.04373,-0.0015 0.0062,-0.01079 -0.02192,-0.01284 -0.02997,-0.02234 -0.02804,-0.03307 -0.06414,-0.06321 -0.07753,-0.104448 -0.01398,-0.04307 0.0035,-0.09074 -5.02e-4,-0.135848 -0.0029,-0.03345 -0.02281,0.181783 -0.02622,0.09725 -0.07269,0.240871 -0.149924,0.480661 -0.245565,0.71358 -0.07869,0.191374 -0.160785,0.38121 -0.251739,0.56714 0.06651,-0.05275 0.03273,-0.0338 0.147879,-0.06695 0.0035,-0.001 0.01462,2.91e-4 0.01097,4.77e-4 -0.02268,10e-4 -0.0455,-0.0011 -0.06818,-9.53e-4 -0.07325,-0.003 -0.146376,-0.0092 -0.217845,-0.02654 -0.128038,-0.03094 -0.251332,-0.07606 -0.376554,-0.116546 -0.138193,-0.04629 -0.278315,-0.08894 -0.409981,-0.152247 -0.111082,-0.05659 -0.218719,-0.119784 -0.330513,-0.175073 0.02929,0.04069 0.06416,0.08647 0.0634,0.138761 -0.0022,0.149496 -0.02595,0.163873 -0.106457,0.226908 -0.0012,9.26e-4 0.0017,-0.0025 0.0026,-0.0037 0.0073,-0.0039 0.01458,-0.0078 0.02187,-0.01172 0.149661,-0.06171 0.310312,-0.09595 0.452768,-0.174819 0.03539,-0.03475 0.0757,-0.06511 0.106164,-0.104246 0.01918,-0.02464 0.0504,-0.113993 0.05858,-0.153015 0.0055,-0.02619 0.0089,-0.05278 0.01327,-0.07916 -0.0022,-0.02916 -0.0018,-0.05862 -0.0065,-0.08749 -0.01666,-0.10308 -0.08486,-0.191957 -0.140502,-0.276423 -0.09586,-0.126604 -0.202896,-0.267307 -0.349809,-0.338085 -0.150105,-0.07232 -0.17677,-0.05482 -0.334723,-0.0537 -0.04331,0.01038 -0.08714,0.01878 -0.129924,0.03115 -0.04034,0.01166 -0.07952,0.02699 -0.119163,0.04083 -0.161211,0.05628 -0.323964,0.113091 -0.469454,0.204358 -0.06136,0.04424 -0.106422,0.07076 -0.154914,0.131604 -0.08357,0.104865 -0.106841,0.225494 -0.07921,0.354097 0.01869,0.102174 0.04496,0.202903 0.05859,0.305925 0.0013,0.0023 0.0017,0.0082 0.004,0.0069 0.0048,-0.0029 0.0055,-0.0099 0.0086,-0.01456 0.0048,-0.0073 0.0091,-0.0151 0.01508,-0.02153 0.03921,-0.04231 0.08666,-0.07015 0.145813,-0.06953 0.0039,0.0012 0.0156,0.0035 0.01157,0.0035 -0.02032,1.18e-4 -0.08055,-0.01273 -0.09036,-0.01467 -0.06343,-0.01255 -0.13151,-0.0271 -0.194206,-0.04068 -0.04795,-0.01038 -0.09586,-0.02097 -0.143792,-0.03146 -0.199298,-0.04399 -0.398786,-0.0867 -0.598401,-0.129207 -0.06294,-0.0134 -0.125896,-0.02677 -0.188647,-0.04105 -0.04194,-0.0095 -0.08262,-0.02589 -0.125391,-0.03038 -0.0076,-7.93e-4 -0.01124,0.01029 -0.01686,0.01543 0.01,0.05961 0.02293,0.118803 0.02988,0.178843 4.23e-4,0.0036 -0.0094,0.01041 -0.0084,0.0069 0.0062,-0.02149 0.01606,-0.04178 0.02448,-0.06252 0.04141,-0.101899 0.08748,-0.201798 0.130404,-0.303054 0.131491,-0.303797 0.25344,-0.611933 0.347935,-0.929519 0.04679,-0.159924 0.03333,-0.111779 0.07342,-0.25604 0.0066,-0.02363 0.01602,-0.04667 0.01955,-0.07094 4.5e-4,-0.0031 -0.0065,-0.0011 -0.0093,2.1e-4 -0.222077,0.106004 -0.09729,0.102579 -0.332788,0.02407 0.02998,0.01811 0.08359,0.07717 0.108078,0.09932 0.06987,0.0632 0.143384,0.122553 0.221133,0.175823 0.16607,0.103808 0.320929,0.193887 0.524424,0.166261 0.02974,-0.0091 0.05995,-0.01687 0.08922,-0.02742 0.04419,-0.01592 0.08062,-0.04994 0.124567,-0.06663 0.128003,-0.06098 0.252163,-0.12984 0.371185,-0.206979 0.07242,-0.04657 0.190698,-0.116984 0.237535,-0.189781 0.0757,-0.117662 0.09968,-0.207191 0.0481,-0.339891 -0.0319,-0.07344 -0.07126,-0.143135 -0.105506,-0.215489 -0.0556,-0.117572 -0.11665,-0.228365 -0.245024,-0.281279 -0.03761,-0.0155 -0.07895,-0.01967 -0.118421,-0.02951 -0.03179,5.29e-4 -0.06369,-0.0011 -0.09538,0.0016 -0.127429,0.01075 -0.24787,0.06431 -0.375259,0.07608 0.0076,0.0126 0.106399,0.15675 0.05302,0.167544 -0.01927,0.0039 -8.74e-4,-0.03946 0.0017,-0.05894 0.005,-0.03707 0.01349,-0.07359 0.021,-0.110234 0.009,-0.04379 0.01899,-0.08736 0.02849,-0.131041 0.06756,-0.267053 0.14615,-0.531757 0.265736,-0.78087 0.16018,-0.338158 -0.318048,-0.564687 -0.478228,-0.226529 z" /></g></g></g></svg>
